<svg xmlns="http://www.w3.org/2000/svg" xmlns:xlink="http://www.w3.org/1999/xlink" version="1.0" id="Layer_1" x="0px" y="0px" width="100px" height="100px" viewBox="5.0 -10.0 100.0 135.0" enable-background="new 0 0 100 100" xml:space="preserve">
<path d="M27.1,51l3.4,3c0.7,0.6,1.5,1,2.5,1h34.1c1,0,1.801-0.4,2.5-1l3.4-3h2c1.7,0,3-1.3,3-3s-1.3-3-3-3H25c-1.7,0-3,1.3-3,3  s1.3,3,3,3H27.1z M75,47c0.6,0,1,0.4,1,1s-0.4,1-1,1h-1.4c-1,0-1.899,0.5-2.5,1l-3.5,3H32.5L29,50c-0.6-0.5-1.5-1-2.5-1H25  c-0.6,0-1-0.4-1-1s0.4-1,1-1H75z"/>
</svg>