<svg xmlns="http://www.w3.org/2000/svg" xmlns:xlink="http://www.w3.org/1999/xlink" version="1.0" id="Layer_1" x="0px" y="0px" width="100px" height="100px" viewBox="5.0 -10.0 100.0 135.0" enable-background="new 0 0 100 100" xml:space="preserve">
<path d="M64,29c-0.1-1.7-1.4-3-3-3H39c-1.7,0-2.9,1.3-3,3l-2,31c0,7.4,4.8,12.1,8.3,14h15.4c3.5-1.9,8.3-6.6,8.3-14L64,29z M64,60  c0,5.1-2.8,9.6-6.8,12H42.8c-4-2.4-6.8-6.9-6.8-12l1.3-20h25.4L64,60z M38,29c0-0.6,0.4-1,1-1h22c0.6,0,1,0.4,1,1l0.6,9H37.4L38,29z  "/>
</svg>